<svg width="626" height="40" viewBox="0 0 626 40" fill="none" xmlns="http://www.w3.org/2000/svg" font-family="ui-monospace,SFMono-Regular,Menlo,Consolas,monospace" font-size="14" font-weight="500">
  <!-- Linux -->
  <g>
    <rect x="4" y="5" width="78" height="30" rx="8" fill="#101418" stroke="#1b212b"/>
    <circle cx="16" cy="20" r="4" fill="#FCC624"/>
    <text x="28" y="25" fill="#c9d1d9">Linux</text>
  </g>
  <!-- eBPF -->
  <g>
    <rect x="90" y="5" width="70" height="30" rx="8" fill="#101418" stroke="#1b212b"/>
    <circle cx="102" cy="20" r="4" fill="#F7941E"/>
    <text x="114" y="25" fill="#c9d1d9">eBPF</text>
  </g>
  <!-- Ceph -->
  <g>
    <rect x="168" y="5" width="70" height="30" rx="8" fill="#101418" stroke="#1b212b"/>
    <circle cx="180" cy="20" r="4" fill="#EE6A52"/>
    <text x="192" y="25" fill="#c9d1d9">Ceph</text>
  </g>
  <!-- Proxmox -->
  <g>
    <rect x="246" y="5" width="95" height="30" rx="8" fill="#101418" stroke="#1b212b"/>
    <circle cx="258" cy="20" r="4" fill="#E57000"/>
    <text x="270" y="25" fill="#c9d1d9">Proxmox</text>
  </g>
  <!-- PostgreSQL -->
  <g>
    <rect x="349" y="5" width="120" height="30" rx="8" fill="#101418" stroke="#1b212b"/>
    <circle cx="361" cy="20" r="4" fill="#569dd6"/>
    <text x="373" y="25" fill="#c9d1d9">PostgreSQL</text>
  </g>
  <!-- chrony / PTP -->
  <g>
    <rect x="477" y="5" width="137" height="30" rx="8" fill="#101418" stroke="#1b212b"/>
    <circle cx="489" cy="20" r="4" fill="#1fbcb0"/>
    <text x="501" y="25" fill="#c9d1d9">chrony / PTP</text>
  </g>
</svg>
